<svg xmlns="http://www.w3.org/2000/svg" xmlns:xlink="http://www.w3.org/1999/xlink" viewBox="0 0 397.38 116.28"><defs><style>.cls-1{fill:none;}.cls-2{fill:#fff;}.cls-3{fill:#ff3131;}.cls-4{clip-path:url(#clip-path);}.cls-5{clip-path:url(#clip-path-2);}.cls-6{clip-path:url(#clip-path-3);}</style><clipPath id="clip-path"><rect class="cls-1" width="111.92" height="116"/></clipPath><clipPath id="clip-path-2"><path class="cls-2" d="M97.24,34.71,44,4A29.36,29.36,0,0,0,0,29.41V90.85L28.15,69.17V51.09A17.14,17.14,0,0,1,53.88,36.24l15.65,9a17.15,17.15,0,0,1,0,29.7L53.88,84,44,116.28l53.2-30.72A29.35,29.35,0,0,0,97.24,34.71Z"/></clipPath><clipPath id="clip-path-3"><path class="cls-2" d="M97.24,34.71,44,4A29.36,29.36,0,0,0,0,29.41V90.85L28.15,69.17V51.09A17.14,17.14,0,0,1,53.88,36.24l15.65,9a17.15,17.15,0,0,1,0,29.7L53.88,84,44,116.28l53.2-30.72a29.35,29.35,0,0,0,0-50.85"/></clipPath></defs><g id="Capa_2" data-name="Capa 2"><g id="Capa_1-2" data-name="Capa 1"><path class="cls-3" d="M49.61,43.61l15.66,9a8.64,8.64,0,0,1,0,15l-15.66,9a8.64,8.64,0,0,1-13-7.48V51.09a8.64,8.64,0,0,1,13-7.48"/><g class="cls-4"><path class="cls-2" d="M97.24,34.71,44,4A29.36,29.36,0,0,0,0,29.41V90.85L28.15,69.17V51.09A17.14,17.14,0,0,1,53.88,36.24l15.65,9a17.15,17.15,0,0,1,0,29.7L53.88,84,44,116.28l53.2-30.72A29.35,29.35,0,0,0,97.24,34.71Z"/><g class="cls-5"><path class="cls-2" d="M97.24,34.71,44,4A29.36,29.36,0,0,0,0,29.41V90.85L28.15,69.17V51.09A17.14,17.14,0,0,1,53.88,36.24l15.65,9a17.15,17.15,0,0,1,0,29.7L53.88,84,44,116.28l53.2-30.72a29.35,29.35,0,0,0,0-50.85"/><g class="cls-6"><path class="cls-2" d="M0,0V116H111.92V0Z"/></g></g></g><path class="cls-2" d="M146.11,49.47a20.19,20.19,0,0,1-10-2.42,17.4,17.4,0,0,1-6.75-6.73,19.94,19.94,0,0,1-2.43-10,20,20,0,0,1,2.41-9.95A17.08,17.08,0,0,1,136,13.66a20.09,20.09,0,0,1,10-2.42,20.51,20.51,0,0,1,8.9,1.9,18.23,18.23,0,0,1,6.66,5.29,18.59,18.59,0,0,1,3.65,8H154.53a7.6,7.6,0,0,0-3-3.94,9.32,9.32,0,0,0-9.63-.31,8.21,8.21,0,0,0-3.1,3.27,10.07,10.07,0,0,0-1.12,4.85,10.44,10.44,0,0,0,1.08,4.86,8.16,8.16,0,0,0,3.06,3.31,9.42,9.42,0,0,0,9.71-.37A9,9,0,0,0,154.7,34h10.73A18.24,18.24,0,0,1,162,42.16a18,18,0,0,1-6.73,5.39A21.11,21.11,0,0,1,146.11,49.47Z"/><path class="cls-2" d="M164.22,48.68,178.45,12h10.48l14.23,36.65H191.91l-2-5.19h-12.5l-2,5.19Zm15.37-12.94h8.17l-4.08-11.35Z"/><path class="cls-2" d="M204.15,48.68V12h8.64l13.92,18.58V12h10.41V48.68h-8.58L214.62,30V48.68Z"/><path class="cls-2" d="M238.17,48.68,252.4,12h10.48l14.23,36.65H265.86l-2-5.19h-12.5l-2,5.19Zm15.38-12.94h8.16l-4.08-11.35Z"/><path class="cls-2" d="M278.1,48.68V12h10.58V38.89h15v9.79Z"/><path class="cls-3" d="M142.14,89.05q-7.12,0-11.17-3.38a11.47,11.47,0,0,1-4-9.29h10.21a4.24,4.24,0,0,0,1.27,3.27A5.07,5.07,0,0,0,142,80.82a5.36,5.36,0,0,0,3-.75,2.46,2.46,0,0,0,1.1-2.13q0-3-6.6-4.35Q127.21,71.23,127.22,62A9.94,9.94,0,0,1,131,53.84c2.5-2,5.9-3,10.23-3A18.7,18.7,0,0,1,149,52.34a11.73,11.73,0,0,1,5.13,4.33A11.9,11.9,0,0,1,156,63.24H146a4.09,4.09,0,0,0-1.21-3.19,4.84,4.84,0,0,0-3.39-1.11,5,5,0,0,0-2.94.78,2.39,2.39,0,0,0-1.11,2.1,2.73,2.73,0,0,0,1.46,2.35,16.63,16.63,0,0,0,5,1.73q6.7,1.47,9.77,4.27a9.52,9.52,0,0,1,3.07,7.36A10.26,10.26,0,0,1,152.8,86Q149,89.05,142.14,89.05Z"/><path class="cls-3" d="M159.29,88.26V51.61h10.59V88.26Z"/><path class="cls-3" d="M174.47,88.26V51.61h8.65L197,70.19V51.61h10.42V88.26h-8.58L185,69.57V88.26Z"/><path class="cls-3" d="M229.23,89.05a20.2,20.2,0,0,1-10-2.42,17.4,17.4,0,0,1-6.75-6.73,19.94,19.94,0,0,1-2.43-10,20,20,0,0,1,2.41-10,17.08,17.08,0,0,1,6.73-6.73,20.09,20.09,0,0,1,10-2.42,20.51,20.51,0,0,1,8.9,1.9A18.23,18.23,0,0,1,244.68,58a18.59,18.59,0,0,1,3.65,8H237.64a7.6,7.6,0,0,0-3-3.94A9.31,9.31,0,0,0,225,61.8a8.17,8.17,0,0,0-3.11,3.27,10.07,10.07,0,0,0-1.12,4.85,10.57,10.57,0,0,0,1.08,4.86,8.16,8.16,0,0,0,3.06,3.31,9.42,9.42,0,0,0,9.71-.37,9,9,0,0,0,3.21-4.13h10.73a17.87,17.87,0,0,1-10.19,13.54A21.09,21.09,0,0,1,229.23,89.05Z"/><path class="cls-3" d="M250.93,88.26V51.61h25.13v8.54H261.41v5.34h13.23V74H261.41v5.64h15.23v8.65Z"/><path class="cls-3" d="M279.72,88.26V51.61H290.3V78.47h15v9.79Z"/><path class="cls-3" d="M307.3,88.26V51.61h25.13v8.54H317.78v5.34H331V74H317.78v5.64H333v8.65Z"/><path class="cls-3" d="M333.88,88.26V78.47h5.56a5.15,5.15,0,0,0,3.81-1.23,5.52,5.52,0,0,0,1.21-4V51.61H355v22.5q0,7-3.81,10.56t-10.89,3.59Z"/><path class="cls-3" d="M377.44,89.05a22.5,22.5,0,0,1-8-1.38,18.45,18.45,0,0,1-6.31-4,18,18,0,0,1-4.15-6.09,21,21,0,0,1,0-15.39,17.79,17.79,0,0,1,4.15-6.07,18.15,18.15,0,0,1,6.31-4,23.73,23.73,0,0,1,16.06,0,18.25,18.25,0,0,1,6.31,4,17.79,17.79,0,0,1,4.15,6.07,21,21,0,0,1,0,15.39,18,18,0,0,1-4.15,6.09,18.55,18.55,0,0,1-6.31,4A22.39,22.39,0,0,1,377.44,89.05Zm-9.21-19.13a9.9,9.9,0,0,0,1.17,4.86,8.53,8.53,0,0,0,3.27,3.31,9.63,9.63,0,0,0,4.77,1.17,9.52,9.52,0,0,0,4.79-1.17,8.43,8.43,0,0,0,3.23-3.31,9.8,9.8,0,0,0,1.19-4.86,9.66,9.66,0,0,0-1.19-4.85,8.33,8.33,0,0,0-3.23-3.27,9.43,9.43,0,0,0-4.79-1.19,9.54,9.54,0,0,0-4.77,1.19,8.43,8.43,0,0,0-3.27,3.27A9.75,9.75,0,0,0,368.23,69.92Z"/><path class="cls-2" d="M130.24,109.8V95.38h9.48v2.75h-6.23v3h5.66v2.73h-5.66V107h6.45v2.8Z"/><path class="cls-2" d="M146.5,110.09a7.42,7.42,0,0,1-3.12-.61,4.62,4.62,0,0,1-2-1.68,4.68,4.68,0,0,1-.71-2.61h3.21a2,2,0,0,0,.71,1.63,3,3,0,0,0,1.89.56,2.85,2.85,0,0,0,1.63-.4,1.25,1.25,0,0,0,.6-1.12,1.42,1.42,0,0,0-.73-1.23,6.64,6.64,0,0,0-2.23-.81,8.23,8.23,0,0,1-3.77-1.63,3.61,3.61,0,0,1-1.21-2.83,3.8,3.8,0,0,1,1.44-3.13,6.26,6.26,0,0,1,4-1.14,7,7,0,0,1,3,.58,4.56,4.56,0,0,1,1.94,1.65,4.51,4.51,0,0,1,.7,2.52h-3.16a1.91,1.91,0,0,0-.65-1.52,2.51,2.51,0,0,0-1.75-.57,2.8,2.8,0,0,0-1.64.42A1.27,1.27,0,0,0,144,99.3a1.32,1.32,0,0,0,.65,1.1,7.16,7.16,0,0,0,2.31.85,8.89,8.89,0,0,1,3.9,1.71,3.56,3.56,0,0,1,1.18,2.77,3.83,3.83,0,0,1-1.48,3.21A6.35,6.35,0,0,1,146.5,110.09Z"/><path class="cls-2" d="M156.91,109.8V98.44h-4.57V95.38h12.42v3.06h-4.58V109.8Z"/><path class="cls-2" d="M165.87,109.8V95.38h5.71a8.38,8.38,0,0,1,4,.92,6.35,6.35,0,0,1,2.64,2.52,7.92,7.92,0,0,1,0,7.56,6.61,6.61,0,0,1-2.64,2.52,8.49,8.49,0,0,1-4,.9Zm3.27-3h2.37a4.57,4.57,0,0,0,2.23-.53,3.84,3.84,0,0,0,1.52-1.47,4.25,4.25,0,0,0,.57-2.21,4.15,4.15,0,0,0-.57-2.21,3.75,3.75,0,0,0-1.52-1.46,4.62,4.62,0,0,0-2.27-.54h-2.33Z"/><path class="cls-2" d="M183.45,109.8v-2.32l6-5.1a6.09,6.09,0,0,0,1.08-1.25,2.42,2.42,0,0,0,.36-1.27,1.86,1.86,0,0,0-.59-1.42,2,2,0,0,0-1.5-.56,2.06,2.06,0,0,0-1.56.62,2.54,2.54,0,0,0-.63,1.71h-3a4.84,4.84,0,0,1,5.25-5.12,6,6,0,0,1,2.71.58,4.37,4.37,0,0,1,1.82,1.6,4.48,4.48,0,0,1,.66,2.44,5.37,5.37,0,0,1-.6,2.42,8.23,8.23,0,0,1-2.06,2.44l-2.71,2.37h5.64v2.86Z"/><path class="cls-2" d="M201.65,110.09a6,6,0,0,1-3.34-.9,5.8,5.8,0,0,1-2.12-2.56,9.91,9.91,0,0,1-.75-4,9.75,9.75,0,0,1,.75-4A5.83,5.83,0,0,1,198.31,96,6.69,6.69,0,0,1,205,96a5.64,5.64,0,0,1,2.12,2.59,9.75,9.75,0,0,1,.75,4,9.91,9.91,0,0,1-.75,4,5.61,5.61,0,0,1-2.12,2.56A6,6,0,0,1,201.65,110.09Zm-3-7.5a6,6,0,0,0,.8,3.35,2.65,2.65,0,0,0,4.45,0,7.44,7.44,0,0,0,0-6.71,2.63,2.63,0,0,0-4.45,0A6,6,0,0,0,198.62,102.59Z"/><path class="cls-2" d="M208.66,109.8v-2.32l6-5.1a6.09,6.09,0,0,0,1.08-1.25,2.42,2.42,0,0,0,.36-1.27,1.86,1.86,0,0,0-.59-1.42,2,2,0,0,0-1.5-.56,2.06,2.06,0,0,0-1.56.62,2.54,2.54,0,0,0-.63,1.71h-3A4.84,4.84,0,0,1,214,95.09a6,6,0,0,1,2.71.58,4.37,4.37,0,0,1,1.82,1.6,4.48,4.48,0,0,1,.66,2.44,5.37,5.37,0,0,1-.6,2.42,8.23,8.23,0,0,1-2.06,2.44l-2.71,2.37h5.64v2.86Z"/><path class="cls-2" d="M226.11,110.09a5.66,5.66,0,0,1-3.9-1.29,4.82,4.82,0,0,1-1.54-3.53h3.14a1.87,1.87,0,0,0,.65,1.42,2.45,2.45,0,0,0,1.6.5,2.38,2.38,0,0,0,1.63-.54,1.81,1.81,0,0,0,.62-1.46,1.75,1.75,0,0,0-.62-1.42,2.43,2.43,0,0,0-1.63-.54h-5.18l.73-7.85h9.08v2.81h-6.27l-.19,2.48h2.31a5.48,5.48,0,0,1,2.57.58,4.27,4.27,0,0,1,1.72,1.65,4.6,4.6,0,0,1-1.91,6.6A6.29,6.29,0,0,1,226.11,110.09Z"/></g></g></svg>